<mxfile host="Electron" modified="2024-01-17T08:30:21.319Z" agent="Mozilla/5.0 (X11; Linux x86_64) AppleWebKit/537.36 (KHTML, like Gecko) draw.io/22.1.2 Chrome/114.0.5735.289 Electron/25.9.4 Safari/537.36" etag="RmP4jMUDCHo4YlQ2ZWoa" version="22.1.2" type="device">
  <diagram name="Page-1" id="ssmCOY5O1K5vGlmGMuIO">
    <mxGraphModel dx="604" dy="829" grid="1" gridSize="10" guides="1" tooltips="1" connect="1" arrows="1" fold="1" page="1" pageScale="1" pageWidth="827" pageHeight="1169" math="0" shadow="0">
      <root>
        <mxCell id="0" />
        <mxCell id="1" parent="0" />
        <mxCell id="s1g-7Gpp12ZKsWqDjTrU-3" value="Schulung" style="swimlane;childLayout=stackLayout;horizontal=1;startSize=50;horizontalStack=0;rounded=1;fontSize=14;fontStyle=0;strokeWidth=2;resizeParent=0;resizeLast=1;shadow=0;dashed=0;align=center;arcSize=4;whiteSpace=wrap;html=1;" vertex="1" parent="1">
          <mxGeometry x="349" y="300" width="160" height="120" as="geometry" />
        </mxCell>
        <mxCell id="s1g-7Gpp12ZKsWqDjTrU-4" value="Termin&lt;br&gt;Raum" style="align=left;strokeColor=none;fillColor=none;spacingLeft=4;fontSize=12;verticalAlign=top;resizable=0;rotatable=0;part=1;html=1;" vertex="1" parent="s1g-7Gpp12ZKsWqDjTrU-3">
          <mxGeometry y="50" width="160" height="70" as="geometry" />
        </mxCell>
        <mxCell id="s1g-7Gpp12ZKsWqDjTrU-5" value="Fach" style="swimlane;childLayout=stackLayout;horizontal=1;startSize=50;horizontalStack=0;rounded=1;fontSize=14;fontStyle=0;strokeWidth=2;resizeParent=0;resizeLast=1;shadow=0;dashed=0;align=center;arcSize=4;whiteSpace=wrap;html=1;" vertex="1" parent="1">
          <mxGeometry x="80" y="80" width="160" height="120" as="geometry" />
        </mxCell>
        <mxCell id="s1g-7Gpp12ZKsWqDjTrU-6" value="Bezeichnung" style="align=left;strokeColor=none;fillColor=none;spacingLeft=4;fontSize=12;verticalAlign=top;resizable=0;rotatable=0;part=1;html=1;" vertex="1" parent="s1g-7Gpp12ZKsWqDjTrU-5">
          <mxGeometry y="50" width="160" height="70" as="geometry" />
        </mxCell>
        <mxCell id="s1g-7Gpp12ZKsWqDjTrU-9" value="" style="endArrow=none;html=1;rounded=0;" edge="1" parent="1" source="s1g-7Gpp12ZKsWqDjTrU-3" target="s1g-7Gpp12ZKsWqDjTrU-28">
          <mxGeometry relative="1" as="geometry">
            <mxPoint x="319" y="470" as="sourcePoint" />
            <mxPoint x="429" y="200" as="targetPoint" />
          </mxGeometry>
        </mxCell>
        <mxCell id="s1g-7Gpp12ZKsWqDjTrU-11" value="n" style="text;html=1;align=center;verticalAlign=middle;resizable=0;points=[];autosize=1;strokeColor=none;fillColor=none;" vertex="1" parent="1">
          <mxGeometry x="429" y="270" width="30" height="30" as="geometry" />
        </mxCell>
        <mxCell id="s1g-7Gpp12ZKsWqDjTrU-12" value="1" style="text;html=1;align=center;verticalAlign=middle;resizable=0;points=[];autosize=1;strokeColor=none;fillColor=none;" vertex="1" parent="1">
          <mxGeometry x="429" y="200" width="30" height="30" as="geometry" />
        </mxCell>
        <mxCell id="s1g-7Gpp12ZKsWqDjTrU-13" value="" style="endArrow=none;html=1;rounded=0;" edge="1" parent="1" source="s1g-7Gpp12ZKsWqDjTrU-5" target="s1g-7Gpp12ZKsWqDjTrU-3">
          <mxGeometry relative="1" as="geometry">
            <mxPoint x="220" y="360" as="sourcePoint" />
            <mxPoint x="380" y="360" as="targetPoint" />
          </mxGeometry>
        </mxCell>
        <mxCell id="s1g-7Gpp12ZKsWqDjTrU-14" value="1" style="text;html=1;align=center;verticalAlign=middle;resizable=0;points=[];autosize=1;strokeColor=none;fillColor=none;" vertex="1" parent="1">
          <mxGeometry x="210" y="200" width="30" height="30" as="geometry" />
        </mxCell>
        <mxCell id="s1g-7Gpp12ZKsWqDjTrU-16" value="n" style="text;html=1;align=center;verticalAlign=middle;resizable=0;points=[];autosize=1;strokeColor=none;fillColor=none;" vertex="1" parent="1">
          <mxGeometry x="349" y="270" width="30" height="30" as="geometry" />
        </mxCell>
        <mxCell id="s1g-7Gpp12ZKsWqDjTrU-17" value="" style="endArrow=none;html=1;rounded=0;" edge="1" parent="1" source="s1g-7Gpp12ZKsWqDjTrU-30" target="s1g-7Gpp12ZKsWqDjTrU-3">
          <mxGeometry relative="1" as="geometry">
            <mxPoint x="240" y="359.9999999999998" as="sourcePoint" />
            <mxPoint x="380" y="260" as="targetPoint" />
          </mxGeometry>
        </mxCell>
        <mxCell id="s1g-7Gpp12ZKsWqDjTrU-18" value="n" style="text;html=1;align=center;verticalAlign=middle;resizable=0;points=[];autosize=1;strokeColor=none;fillColor=none;" vertex="1" parent="1">
          <mxGeometry x="240" y="330" width="30" height="30" as="geometry" />
        </mxCell>
        <mxCell id="s1g-7Gpp12ZKsWqDjTrU-19" value="m" style="text;html=1;align=center;verticalAlign=middle;resizable=0;points=[];autosize=1;strokeColor=none;fillColor=none;" vertex="1" parent="1">
          <mxGeometry x="319" y="330" width="30" height="30" as="geometry" />
        </mxCell>
        <mxCell id="s1g-7Gpp12ZKsWqDjTrU-20" value="Raum" style="swimlane;childLayout=stackLayout;horizontal=1;startSize=50;horizontalStack=0;rounded=1;fontSize=14;fontStyle=0;strokeWidth=2;resizeParent=0;resizeLast=1;shadow=0;dashed=0;align=center;arcSize=4;whiteSpace=wrap;html=1;" vertex="1" parent="1">
          <mxGeometry x="620" y="80" width="160" height="120" as="geometry" />
        </mxCell>
        <mxCell id="s1g-7Gpp12ZKsWqDjTrU-21" value="Nummer&lt;br&gt;Bezeichnung&lt;br&gt;Art" style="align=left;strokeColor=none;fillColor=none;spacingLeft=4;fontSize=12;verticalAlign=top;resizable=0;rotatable=0;part=1;html=1;" vertex="1" parent="s1g-7Gpp12ZKsWqDjTrU-20">
          <mxGeometry y="50" width="160" height="70" as="geometry" />
        </mxCell>
        <mxCell id="s1g-7Gpp12ZKsWqDjTrU-22" value="" style="endArrow=none;html=1;rounded=0;" edge="1" parent="1" source="s1g-7Gpp12ZKsWqDjTrU-3" target="s1g-7Gpp12ZKsWqDjTrU-20">
          <mxGeometry relative="1" as="geometry">
            <mxPoint x="500" y="240" as="sourcePoint" />
            <mxPoint x="660" y="240" as="targetPoint" />
          </mxGeometry>
        </mxCell>
        <mxCell id="s1g-7Gpp12ZKsWqDjTrU-23" value="1" style="text;html=1;align=center;verticalAlign=middle;resizable=0;points=[];autosize=1;strokeColor=none;fillColor=none;" vertex="1" parent="1">
          <mxGeometry x="509" y="110" width="30" height="30" as="geometry" />
        </mxCell>
        <mxCell id="s1g-7Gpp12ZKsWqDjTrU-24" value="1" style="text;html=1;align=center;verticalAlign=middle;resizable=0;points=[];autosize=1;strokeColor=none;fillColor=none;" vertex="1" parent="1">
          <mxGeometry x="590" y="110" width="30" height="30" as="geometry" />
        </mxCell>
        <mxCell id="s1g-7Gpp12ZKsWqDjTrU-25" value="" style="endArrow=none;html=1;rounded=0;" edge="1" parent="1" source="s1g-7Gpp12ZKsWqDjTrU-28" target="s1g-7Gpp12ZKsWqDjTrU-20">
          <mxGeometry relative="1" as="geometry">
            <mxPoint x="509" y="140" as="sourcePoint" />
            <mxPoint x="690" y="430" as="targetPoint" />
          </mxGeometry>
        </mxCell>
        <mxCell id="s1g-7Gpp12ZKsWqDjTrU-26" value="1" style="text;html=1;align=center;verticalAlign=middle;resizable=0;points=[];autosize=1;strokeColor=none;fillColor=none;" vertex="1" parent="1">
          <mxGeometry x="620" y="200" width="30" height="30" as="geometry" />
        </mxCell>
        <mxCell id="s1g-7Gpp12ZKsWqDjTrU-27" value="1" style="text;html=1;align=center;verticalAlign=middle;resizable=0;points=[];autosize=1;strokeColor=none;fillColor=none;" vertex="1" parent="1">
          <mxGeometry x="479" y="270" width="30" height="30" as="geometry" />
        </mxCell>
        <mxCell id="s1g-7Gpp12ZKsWqDjTrU-28" value="Ausbilder" style="swimlane;childLayout=stackLayout;horizontal=1;startSize=50;horizontalStack=0;rounded=1;fontSize=14;fontStyle=0;strokeWidth=2;resizeParent=0;resizeLast=1;shadow=0;dashed=0;align=center;arcSize=4;whiteSpace=wrap;html=1;" vertex="1" parent="1">
          <mxGeometry x="349" y="80" width="160" height="120" as="geometry" />
        </mxCell>
        <mxCell id="s1g-7Gpp12ZKsWqDjTrU-29" value="Ausbilder Nummer&lt;br&gt;Name" style="align=left;strokeColor=none;fillColor=none;spacingLeft=4;fontSize=12;verticalAlign=top;resizable=0;rotatable=0;part=1;html=1;" vertex="1" parent="s1g-7Gpp12ZKsWqDjTrU-28">
          <mxGeometry y="50" width="160" height="70" as="geometry" />
        </mxCell>
        <mxCell id="s1g-7Gpp12ZKsWqDjTrU-30" value="Auszubildender" style="swimlane;childLayout=stackLayout;horizontal=1;startSize=50;horizontalStack=0;rounded=1;fontSize=14;fontStyle=0;strokeWidth=2;resizeParent=0;resizeLast=1;shadow=0;dashed=0;align=center;arcSize=4;whiteSpace=wrap;html=1;" vertex="1" parent="1">
          <mxGeometry x="80" y="300" width="160" height="120" as="geometry" />
        </mxCell>
        <mxCell id="s1g-7Gpp12ZKsWqDjTrU-31" value="Name" style="align=left;strokeColor=none;fillColor=none;spacingLeft=4;fontSize=12;verticalAlign=top;resizable=0;rotatable=0;part=1;html=1;" vertex="1" parent="s1g-7Gpp12ZKsWqDjTrU-30">
          <mxGeometry y="50" width="160" height="70" as="geometry" />
        </mxCell>
      </root>
    </mxGraphModel>
  </diagram>
</mxfile>
